<svg width="1226" height="1626" viewBox="0 0 1226 1626" fill="none" xmlns="http://www.w3.org/2000/svg">
<path d="M18.5 979L140.5 919.5V1165H119L18.5 979Z" fill="#8E283C"/>
<path d="M0 1089.5L127 1042.5V1219H45L0 1089.5Z" fill="#D4B25A"/>
<path d="M100.359 418.868L180.5 344.5L268 284L160.882 642.551L83.2884 717.5L61.9502 699.636L45.2676 675.171L41 620.027L45.2676 545.466L100.359 418.868Z" fill="#D4B25A"/>
<path d="M67.3226 776.084L81.6452 713.874L161 636.5L94.4194 884.174L65 921.5L67.3226 776.084Z" fill="#A1BBCB"/>
<path d="M104 872.63L396.5 0H1225.5V1563L216 1163.93L104 872.63Z" fill="#8E283C"/>
<path d="M268 912.006L485 740.5V769.084L283.973 935.5L268 912.006Z" fill="#DB4F5A"/>
<path d="M100 866.2L485 535.5V680.278L159.44 941.5L100 866.2Z" fill="#DB4F5A"/>
<path d="M127 727.379L463.046 404.5H484V468.144L166.58 775.5L127 727.379Z" fill="#DB4F5A"/>
<path d="M142.717 883.402L362 699.5L329.01 739.462L140 912.5L142.717 883.402Z" fill="#D4B25A"/>
<path d="M19 1316.26L25.9828 1250.2L35.2931 1211.35L55.4655 1168.6L82.6207 1128.19L185.034 1038.04L285.121 1022.5L469 1293.72L610.5 1392L481 1430.5L185.034 1626L19 1430.5V1316.26Z" fill="#A1BBCB"/>
<path d="M98 902.5L449 1037.58L317.618 1073.5L119.379 994.637L98 902.5Z" fill="#D4B25A"/>
<path d="M77 972.5L471 1132.96L344.842 1202.5L222.955 1145.39L132.121 1115.08L77 972.5Z" fill="#DB4F5A"/>
<path d="M41 1304.8L248.154 1172.5L274 1214.79L69.9321 1340.5L41 1304.8Z" fill="#DB4F5A"/>
<path d="M273.696 1427.12L222 1402.22L463.572 1154.5L498.043 1188.12L273.696 1427.12Z" fill="#DB4F5A"/>
</svg>
