<svg width="41" height="41" viewBox="0 0 41 41" fill="none" xmlns="http://www.w3.org/2000/svg">
<path d="M20.2839 0.283844C14.8522 0.283844 14.1711 0.306867 12.0379 0.404199C9.9091 0.501373 8.45523 0.839416 7.183 1.33386C5.86783 1.84497 4.75248 2.52884 3.64062 3.6407C2.52876 4.75256 1.84489 5.86791 1.33378 7.18308C0.839337 8.45523 0.501294 9.9091 0.40412 12.0379C0.306788 14.1711 0.283844 14.8522 0.283844 20.2839C0.283844 25.7155 0.306788 26.3966 0.40412 28.5298C0.501294 30.6586 0.839337 32.1125 1.33378 33.3846C1.84489 34.6998 2.52876 35.8151 3.64062 36.9271C4.75248 38.0389 5.86783 38.7228 7.183 39.2339C8.45523 39.7283 9.9091 40.0664 12.0379 40.1635C14.1711 40.2608 14.8522 40.2838 20.2839 40.2838C25.7155 40.2838 26.3966 40.2608 28.5298 40.1635C30.6586 40.0664 32.1125 39.7283 33.3846 39.2339C34.6998 38.7228 35.8151 38.0389 36.9271 36.9271C38.0389 35.8151 38.7228 34.6998 39.2339 33.3846C39.7283 32.1125 40.0664 30.6586 40.1635 28.5298C40.2608 26.3966 40.2838 25.7155 40.2838 20.2839C40.2838 14.8522 40.2608 14.1711 40.1635 12.0379C40.0664 9.9091 39.7283 8.45523 39.2339 7.18308C38.7228 5.86791 38.0389 4.75256 36.9271 3.6407C35.8151 2.52884 34.6998 1.84497 33.3846 1.33386C32.1125 0.839416 30.6586 0.501373 28.5298 0.404199C26.3966 0.306867 25.7155 0.283844 20.2839 0.283844ZM20.2839 3.88752C25.6241 3.88752 26.2566 3.90784 28.3656 4.00407C30.3155 4.09306 31.3745 4.41888 32.0793 4.69269C33.0128 5.05551 33.6791 5.48898 34.3789 6.1888C35.0788 6.88863 35.5122 7.55495 35.875 8.48842C36.1489 9.19316 36.4747 10.2521 36.5636 12.2021C36.6598 14.311 36.6802 14.9436 36.6802 20.2839C36.6802 25.6241 36.6598 26.2566 36.5636 28.3656C36.4747 30.3155 36.1489 31.3745 35.875 32.0793C35.5122 33.0128 35.0788 33.6791 34.3789 34.3789C33.6791 35.0788 33.0128 35.5122 32.0793 35.875C31.3745 36.1489 30.3155 36.4747 28.3656 36.5636C26.257 36.6598 25.6245 36.6802 20.2839 36.6802C14.9432 36.6802 14.3108 36.6598 12.2021 36.5636C10.2521 36.4747 9.19316 36.1489 8.48842 35.875C7.55487 35.5122 6.88863 35.0788 6.18872 34.3789C5.4889 33.6791 5.05543 33.0128 4.69269 32.0793C4.4188 31.3745 4.09298 30.3155 4.00399 28.3656C3.90776 26.2566 3.88744 25.6241 3.88744 20.2839C3.88744 14.9436 3.90776 14.311 4.00399 12.2021C4.09298 10.2521 4.4188 9.19316 4.69269 8.48842C5.05543 7.55495 5.4889 6.88863 6.18872 6.1888C6.88863 5.48898 7.55487 5.05551 8.48842 4.69269C9.19316 4.41888 10.2521 4.09306 12.2021 4.00407C14.311 3.90784 14.9436 3.88752 20.2839 3.88752Z" fill="white"/>
<path d="M20.2839 26.9505C16.6019 26.9505 13.6172 23.9658 13.6172 20.2839C13.6172 16.6019 16.6019 13.6172 20.2839 13.6172C23.9658 13.6172 26.9505 16.6019 26.9505 20.2839C26.9505 23.9658 23.9658 26.9505 20.2839 26.9505ZM20.2839 10.0136C14.6117 10.0136 10.0136 14.6117 10.0136 20.2839C10.0136 25.956 14.6117 30.5541 20.2839 30.5541C25.956 30.5541 30.5541 25.956 30.5541 20.2839C30.5541 14.6117 25.956 10.0136 20.2839 10.0136Z" fill="white"/>
<path d="M33.3599 9.60782C33.3599 10.9333 32.2854 12.0078 30.9599 12.0078C29.6344 12.0078 28.5599 10.9333 28.5599 9.60782C28.5599 8.28232 29.6344 7.20785 30.9599 7.20785C32.2854 7.20785 33.3599 8.28232 33.3599 9.60782Z" fill="white"/>
</svg>
