<svg width="55" height="44" viewBox="0 0 55 44" fill="none" xmlns="http://www.w3.org/2000/svg">
<path d="M17.3467 43.7113C37.7241 43.7113 48.8697 27.1665 48.8697 12.8189C48.8697 12.349 48.8697 11.8812 48.8373 11.4154C51.0055 9.8784 52.8773 7.97546 54.3647 5.79541C52.3428 6.67344 50.1977 7.24915 48.0014 7.50362C50.3137 6.14714 52.0454 4.01195 52.8721 1.49826C50.6975 2.76286 48.318 3.65423 45.8371 4.13371C43.7422 1.95067 40.8165 0.711288 37.7589 0.711288C31.6752 0.711288 26.6694 5.61712 26.6694 11.5789C26.6694 12.4059 26.7658 13.2304 26.9565 14.036C18.053 13.5987 9.74607 9.47158 4.12311 2.69216C1.19909 7.62507 2.71204 14.0178 7.55316 17.1858C5.79025 17.1346 4.0652 16.6685 2.52473 15.8268V15.9644C2.5262 21.1131 6.26328 25.5882 11.4131 26.6077C9.78214 27.0435 8.07048 27.1072 6.41062 26.7939C7.85839 31.2058 12.0333 34.2469 16.7613 34.3339C12.8389 37.3548 7.99086 38.9957 3.00208 38.9909C2.12057 38.9892 1.23991 38.9369 0.364727 38.8342C5.43081 42.0202 11.3271 43.7107 17.3467 43.7028" fill="white"/>
</svg>
