<svg width="58" height="41" viewBox="0 0 58 41" fill="none" xmlns="http://www.w3.org/2000/svg">
<path d="M55.8187 6.27005C55.1633 3.81134 53.2319 1.8753 50.7794 1.21815C46.3338 0.023956 28.5095 0.0239563 28.5095 0.0239563C28.5095 0.0239563 10.685 0.023956 6.23948 1.21815C3.78736 1.8753 1.8557 3.81134 1.20031 6.27005C0.00942993 10.7263 0.00942993 20.0243 0.00942993 20.0243C0.00942993 20.0243 0.00942993 29.3221 1.20031 33.7779C1.8557 36.2366 3.78736 38.1732 6.23948 38.8302C10.685 40.024 28.5095 40.024 28.5095 40.024C28.5095 40.024 46.3338 40.024 50.7794 38.8302C53.2319 38.1732 55.1633 36.2366 55.8187 33.7779C57.0094 29.3221 57.0094 20.0243 57.0094 20.0243C57.0094 20.0243 57.0094 10.7263 55.8187 6.27005ZM22.8091 28.5958V11.4526L37.6179 20.0243L22.8091 28.5958Z" fill="white"/>
</svg>
